<svg xmlns="http://www.w3.org/2000/svg" viewBox="0 0 636.4 143.57"><defs><style>.cls-1{fill:none;stroke:#fff;stroke-miterlimit:10;}</style></defs><title>Asset 1</title><g id="Layer_2" data-name="Layer 2"><g id="Layer_1-2" data-name="Layer 1"><path class="cls-1" d="M111.44,54.79q0,14.75-5.13,25.12a44.84,44.84,0,0,1-14,16.78,60.06,60.06,0,0,1-20.73,9.41,104.16,104.16,0,0,1-25.54,3v34H.5V.5H46a104.15,104.15,0,0,1,25.54,3A60.06,60.06,0,0,1,92.3,12.9a44.85,44.85,0,0,1,14,16.78Q111.44,40,111.44,54.79Zm-20.74,0a38.89,38.89,0,0,0-3.31-16.67,30.31,30.31,0,0,0-9.3-11.54,41.8,41.8,0,0,0-14.22-6.73A67.73,67.73,0,0,0,46,17.6H21.88V126h5.56V92H46a67.73,67.73,0,0,0,17.85-2.24A41.8,41.8,0,0,0,78.09,83a30.28,30.28,0,0,0,9.3-11.54A38.87,38.87,0,0,0,90.7,54.79Zm-6,0q0,9.19-3.21,15.39A26.15,26.15,0,0,1,73,80a36,36,0,0,1-12.29,5.24A65,65,0,0,1,46,86.86H27.43V22.73H46a65,65,0,0,1,14.64,1.6A36.09,36.09,0,0,1,73,29.57a26.22,26.22,0,0,1,8.55,9.83Q84.72,45.61,84.72,54.79ZM46,70.61H48q9,0,12.93-4.17t4-11.65q0-7.48-4-11.65T48,39H46Z"/><path class="cls-1" d="M122.12.5h48.31V143.07H122.12ZM149.05,126V17.6H143.5V126Z"/><path class="cls-1" d="M185.39.5h47.45V105.66h39.33v37.41H185.39ZM260.2,126v-5.13H212.32V17.6h-5.56V126Z"/><path class="cls-1" d="M279.65.5H327.1V105.66h39.33v37.41H279.65ZM354.47,126v-5.13H306.58V17.6H301V126Z"/><path class="cls-1" d="M423.72.5h34.2L512,143.07H467.11l-4.7-12.83H419.23l-4.7,12.83H369.64ZM401.49,126l4.06-10.69h70.54L480.14,126h6L444.88,17.6h-8.12L395.5,126ZM440.82,22.73l33.34,87.42H407.47Zm9.62,76.09-9.62-25-9.62,25Z"/><path class="cls-1" d="M515.2.5h49.16a84.73,84.73,0,0,1,25.33,3.63,59,59,0,0,1,20.2,10.69,49.07,49.07,0,0,1,13.36,17.42,56.05,56.05,0,0,1,4.81,23.83q0,10.69-3,18.17a55.72,55.72,0,0,1-6.63,12.4A46.35,46.35,0,0,1,608.82,96l26.72,47H582.11l-21.38-36.12v36.12H515.2Zm44.46,93a76.4,76.4,0,0,0,16.24-1.71L596.21,126h6.63L581.46,90.06a40.16,40.16,0,0,0,18.38-12.51q6.84-8.44,6.84-21.91a35.48,35.48,0,0,0-3.64-16.46,34.81,34.81,0,0,0-9.94-11.86,44.45,44.45,0,0,0-14.85-7.26,67.17,67.17,0,0,0-18.59-2.46H536.57V126h5.56V93.48Zm-17.53-5.13V22.73h17.53q19.44,0,30.46,8.55t11,24.36q0,15.82-11,24.26t-30.46,8.44Zm18.6-17.74h2.35A25,25,0,0,0,576.87,67q5.66-3.63,5.67-12.18t-5.67-12.19A25,25,0,0,0,563.08,39h-2.35Z"/></g></g></svg>